<?xml version="1.0" standalone="no"?>
<!DOCTYPE svg PUBLIC "-//W3C//DTD SVG 20010904//EN"
 "http://www.w3.org/TR/2001/REC-SVG-20010904/DTD/svg10.dtd">
<svg version="1.0" xmlns="http://www.w3.org/2000/svg"
 width="405.000000pt" height="124.000000pt" viewBox="0 0 405.000000 124.000000"
 preserveAspectRatio="xMidYMid meet">

<g transform="translate(0.000000,124.000000) scale(0.100000,-0.100000)"
fill="#6B8915" stroke="none">
<path d="M1460 1231 c-266 -37 -461 -246 -460 -494 1 -131 57 -262 151 -352
117 -112 316 -168 459 -129 9 2 52 -23 95 -57 90 -69 218 -146 284 -173 79
-31 205 -18 259 26 11 10 1 14 -50 25 -88 17 -207 80 -312 165 l-89 72 24 15
c138 91 204 191 232 348 16 91 -1 195 -47 288 -92 186 -320 297 -546 266z
m224 -130 c104 -51 178 -152 205 -279 40 -192 -31 -364 -182 -441 -58 -30 -80
-35 -155 -39 -111 -5 -179 18 -255 88 -92 84 -137 193 -137 331 0 93 18 155
64 224 95 144 299 195 460 116z"/>
<path d="M3530 1211 c-88 -28 -140 -60 -201 -120 -119 -120 -164 -288 -124
-474 49 -233 241 -369 525 -370 133 -1 221 22 240 61 7 15 23 50 36 79 l23 51
-62 -28 c-124 -55 -266 -70 -362 -37 -150 52 -255 211 -255 386 0 215 139 361
343 361 80 0 151 -16 214 -48 23 -12 45 -22 48 -22 3 0 5 33 5 74 0 62 -3 75
-17 80 -107 31 -327 35 -413 7z"/>
<path d="M35 1202 c39 -28 40 -36 45 -391 l5 -346 28 -57 c53 -109 150 -160
302 -160 107 -1 186 25 245 78 21 19 40 34 44 34 3 0 6 -20 6 -45 l0 -45 92 0
c86 0 90 1 76 18 -9 9 -19 27 -22 39 -4 13 -7 200 -8 418 0 382 1 396 21 430
l20 35 -114 0 -114 0 22 -37 c21 -37 22 -46 22 -348 0 -171 -3 -322 -8 -337
-4 -15 -22 -44 -40 -64 -75 -86 -214 -110 -318 -56 -45 24 -59 37 -84 87 l-30
59 0 317 c0 315 0 318 23 348 l23 31 -123 0 c-68 0 -118 -4 -113 -8z"/>
<path d="M2515 1187 c19 -30 24 -18 -144 -436 -162 -404 -162 -405 -204 -448
l-31 -33 107 0 107 0 -16 25 c-18 28 -19 27 44 198 l47 127 188 -2 189 -3 54
-138 c58 -149 64 -180 37 -196 -13 -8 17 -10 108 -11 l126 0 -37 38 c-35 37
-86 157 -354 824 l-31 78 -103 0 -102 0 15 -23z m176 -282 c38 -98 67 -180 65
-182 -2 -2 -68 -2 -148 -1 l-145 3 71 187 c39 102 75 183 79 178 5 -4 40 -88
78 -185z"/>
</g>
</svg>
