<?xml version="1.0" standalone="no"?>
<!DOCTYPE svg PUBLIC "-//W3C//DTD SVG 20010904//EN"
 "http://www.w3.org/TR/2001/REC-SVG-20010904/DTD/svg10.dtd">
<svg version="1.0" xmlns="http://www.w3.org/2000/svg"
 width="512.000000pt" height="512.000000pt" viewBox="0 0 512.000000 512.000000"
 preserveAspectRatio="xMidYMid meet">

<g transform="translate(0.000000,512.000000) scale(0.100000,-0.100000)"
fill="#ffffff" stroke="none">
<path d="M1765 4944 c-524 -70 -986 -354 -1283 -787 -576 -840 -354 -1995 493
-2562 626 -420 1429 -418 2056 4 641 431 943 1228 750 1979 -210 816 -957
1389 -1803 1381 -62 -1 -158 -7 -213 -15z m526 -333 c309 -62 554 -195 780
-420 230 -231 366 -487 425 -806 25 -135 26 -402 1 -530 -110 -563 -496 -1005
-1029 -1179 -164 -54 -279 -71 -468 -71 -189 0 -304 17 -468 71 -240 78 -417
188 -603 373 -230 231 -366 487 -425 806 -26 138 -26 392 0 530 59 319 193
574 425 806 261 260 521 385 926 443 70 10 344 -4 436 -23z"/>
<path d="M1855 4226 c-68 -31 -95 -84 -95 -187 0 -57 -3 -71 -17 -76 -10 -3
-54 -21 -98 -39 l-79 -34 -51 49 c-61 60 -82 71 -134 71 -61 0 -87 -15 -168
-93 -94 -91 -106 -113 -101 -189 4 -56 7 -61 61 -116 l57 -58 -34 -79 c-18
-44 -36 -87 -39 -96 -4 -14 -23 -18 -91 -20 -91 -4 -118 -17 -160 -73 -19 -25
-21 -42 -21 -166 0 -124 2 -141 21 -166 42 -56 69 -69 160 -73 68 -2 87 -6 91
-20 3 -9 21 -52 39 -96 l34 -79 -57 -58 c-54 -55 -57 -60 -61 -116 -5 -76 7
-98 101 -189 81 -78 107 -93 168 -93 51 0 73 11 134 71 l50 49 95 -39 95 -40
5 -85 c6 -91 19 -119 74 -160 25 -19 42 -21 166 -21 124 0 141 2 166 21 56 42
69 69 73 160 2 68 6 87 20 91 9 3 52 21 96 39 l79 34 56 -54 c59 -58 82 -69
141 -68 54 1 84 20 171 109 83 86 93 107 86 184 -5 45 -11 57 -62 108 l-56 57
34 79 c18 44 36 87 39 96 4 14 23 18 91 20 91 4 118 17 160 73 19 25 21 42 21
166 0 124 -2 141 -21 166 -42 56 -69 69 -160 73 -68 2 -87 6 -91 20 -3 9 -21
52 -39 96 l-34 79 56 57 c51 51 57 63 62 108 7 77 -3 98 -86 184 -87 89 -117
108 -171 109 -59 1 -82 -10 -141 -68 l-56 -54 -79 34 c-44 18 -87 36 -96 39
-14 4 -18 23 -20 91 -4 91 -17 118 -73 160 -24 18 -44 21 -154 24 -91 1 -135
-2 -157 -12z m260 -641 c238 -62 393 -291 358 -531 -30 -212 -196 -377 -409
-407 -329 -48 -612 266 -529 586 67 258 329 417 580 352z"/>
<path d="M3695 1881 c-54 -26 -439 -413 -460 -463 -21 -51 -19 -144 4 -193 10
-22 38 -59 63 -82 l43 -43 338 338 338 338 -51 48 c-28 26 -66 54 -85 62 -48
20 -141 18 -190 -5z"/>
<path d="M3790 1325 l-335 -335 345 -345 c316 -315 351 -347 412 -374 37 -17
99 -36 138 -42 199 -30 404 79 494 263 72 148 68 306 -11 448 -22 38 -687 720
-703 720 -3 0 -156 -151 -340 -335z"/>
</g>
</svg>
